<?xml version="1.0" standalone="no"?><!DOCTYPE svg PUBLIC "-//W3C//DTD SVG 1.1//EN" "http://www.w3.org/Graphics/SVG/1.1/DTD/svg11.dtd"><svg t="1676452477462" class="icon" viewBox="0 0 1024 1024" version="1.1" xmlns="http://www.w3.org/2000/svg" p-id="6516" xmlns:xlink="http://www.w3.org/1999/xlink" width="200" height="200"><path d="M918.6304 425.216l-121.856-212.3264c-30.9248-53.8624-88.6784-87.3984-150.7328-87.552l-244.7872-0.6144h-0.4608c-61.9008 0-119.6544 33.2288-150.784 86.784L127.0784 423.2192c-31.1808 53.7088-31.3344 120.4736-0.4608 174.336l121.856 212.2752c30.9248 53.8624 88.6784 87.3984 150.7328 87.552l244.7872 0.6144h0.4608c61.9008 0 119.6544-33.2288 150.784-86.784l122.9312-211.6608c31.1808-53.6576 31.3856-120.4736 0.4608-174.336z" fill="#6FE0FF" p-id="6517"></path><path d="M346.4704 888.9344c16.8448 5.4272 34.6112 8.3968 52.7872 8.448l244.7872 0.6144h0.4608c61.9008 0 119.6544-33.2288 150.784-86.784l122.9312-211.6608c20.6848-35.584 27.5968-76.9024 21.0432-116.3776a484.57216 484.57216 0 0 0-114.432-13.6704c-245.1456-0.0512-447.5392 182.7328-478.3616 419.4304z" fill="#55D7FF" p-id="6518"></path><path d="M634.9824 125.3376l-233.728-0.6144h-0.4608c-61.9008 0-119.6544 33.2288-150.784 86.784L127.0784 423.2192c-21.5552 37.0688-28.2624 80.384-20.1728 121.3952 16.2816 1.6384 32.768 2.5088 49.4592 2.5088 245.9136 0 448.8192-183.9616 478.6176-421.7856z" fill="#9AEFFF" p-id="6519"></path><path d="M499.0976 657.8176c-7.6288 0-15.0528-2.8672-20.7872-8.0896l-127.9488-117.3504c-12.4928-11.4688-13.3632-30.9248-1.8944-43.4176a30.7456 30.7456 0 0 1 43.4176-1.8944l102.0928 93.6448 131.7376-188.3648a30.72 30.72 0 0 1 42.8032-7.5776 30.72 30.72 0 0 1 7.5776 42.8032l-151.808 217.088a30.6688 30.6688 0 0 1-21.8112 12.9536c-1.1264 0.1024-2.2528 0.2048-3.3792 0.2048z" fill="#FFFFFF" p-id="6520"></path></svg>